<?xml version="1.0" encoding="UTF-8"?>
<svg id="Layer_2" data-name="Layer 2" xmlns="http://www.w3.org/2000/svg" viewBox="0 0 1769 528.4">
  <defs>
    <style>
      .cls-1 {
        fill: #fff;
        stroke-width: 0px;
      }
    </style>
  </defs>
  <g id="Layer_1-2" data-name="Layer 1">
    <g>
      <path class="cls-1" d="M510.45,66.23h-31.34v-8.95h21.74V2.28h9.59v63.95Z"/>
      <path class="cls-1" d="M518.4,66.23V2.28h42.12v63.95h-9.41v-27.22h-23.39v27.22h-9.32ZM527.72,29.6h23.39V11.69h-23.39v17.91Z"/>
      <path class="cls-1" d="M626.38,66.23h-57.92V2.28h48.51v9.41h-39.19v45.13h39.19v-17.18h-10.96v-9.41h31.34v9.41h-10.96v26.59Z"/>
      <path class="cls-1" d="M684.66,2.28v63.95h-42.03V2.28h9.32v54.54h23.3V2.28h9.41Z"/>
      <path class="cls-1" d="M693.61,66.23V2.28h42.12v63.95h-9.41v-27.22h-23.39v27.22h-9.32ZM702.93,29.6h23.39V11.69h-23.39v17.91Z"/>
      <path class="cls-1" d="M745.07,66.23V2.28h17.63c6.3,0,11.97,2.56,16.54,6.85,4.48,4.29,6.85,10.32,6.85,16.44s-2.38,12.15-6.85,16.63c-2.28,2.28-5.02,3.93-7.95,5.12l15.35,18.91h-12.42l-13.89-17.27h-5.66v17.27h-9.59ZM754.66,39.38h8.04c7.58,0,13.89-6.21,13.89-13.79s-6.3-13.7-13.89-13.7h-8.04v27.5Z"/>
      <path class="cls-1" d="M865.57,9.14c4.38,4.29,6.85,10.23,6.85,16.54s-2.47,11.97-6.85,16.44c-4.29,4.48-10.23,6.76-16.54,6.76h-8.04v17.18h-9.59V2.28h17.63c6.3,0,12.24,2.47,16.54,6.85ZM862.92,25.67c0-7.58-6.3-13.89-13.89-13.89h-8.04v27.5h8.04c7.58,0,13.89-6.03,13.89-13.61Z"/>
      <path class="cls-1" d="M880.55,66.23V2.28h17.63c6.3,0,11.97,2.56,16.53,6.85,4.48,4.29,6.85,10.32,6.85,16.44s-2.38,12.15-6.85,16.63c-2.28,2.28-5.02,3.93-7.95,5.12l15.35,18.91h-12.43l-13.89-17.27h-5.66v17.27h-9.59ZM890.14,39.38h8.04c7.58,0,13.89-6.21,13.89-13.79s-6.3-13.7-13.89-13.7h-8.04v27.5Z"/>
      <path class="cls-1" d="M960.94,68.34c-18.91,0-34.17-15.26-34.17-34.17S942.03,0,960.94,0s34.17,15.26,34.17,34.17c0,1.1-.09,2.19-.18,3.2h-58.29c.64,5.39,3.11,10.32,6.94,14.16,4.66,4.66,10.78,7.22,17.36,7.22s12.7-2.56,17.36-7.22c1.37-1.46,2.65-3.01,3.65-4.66l10.32.82c-5.21,12.15-17.27,20.65-31.34,20.65ZM943.58,16.81c-3.11,3.11-5.3,7.03-6.39,11.15h47.51c-1.1-4.11-3.29-8.04-6.39-11.15-4.66-4.66-10.78-7.22-17.36-7.22s-12.7,2.56-17.36,7.22Z"/>
      <path class="cls-1" d="M1044.52,37.82h-40.84V2.28h50.25v9.32h-40.93v16.9h40.93v37.73h-50.25v-9.32h40.84v-19.09Z"/>
      <path class="cls-1" d="M1094.67,68.34c-18.91,0-34.17-15.26-34.17-34.17s15.26-34.17,34.17-34.17,34.17,15.26,34.17,34.17c0,1.1-.09,2.19-.18,3.2h-58.29c.64,5.39,3.11,10.32,6.94,14.16,4.66,4.66,10.78,7.22,17.36,7.22s12.7-2.56,17.36-7.22c1.37-1.46,2.65-3.01,3.65-4.66l10.32.82c-5.21,12.15-17.27,20.65-31.34,20.65ZM1077.31,16.81c-3.11,3.11-5.3,7.03-6.4,11.15h47.51c-1.1-4.11-3.29-8.04-6.39-11.15-4.66-4.66-10.78-7.22-17.36-7.22s-12.7,2.56-17.36,7.22Z"/>
      <path class="cls-1" d="M1152.22,10.87h-6.85v55.36h-10.05V2.28h25.49l6.3,55.45h6.94l-.09-55.45h9.77v63.95h-25.49l-6.03-55.36Z"/>
      <path class="cls-1" d="M1216.71,11.69v54.54h-9.32V11.69h-16.63V2.28h42.57v9.41h-16.63Z"/>
      <path class="cls-1" d="M1280.47,37.82h-40.84V2.28h50.25v9.32h-40.93v16.9h40.93v37.73h-50.25v-9.32h40.84v-19.09Z"/>
    </g>
    <g>
      <path class="cls-1" d="M262.27,116.19v399.1H0V116.19h58.16v340.37h145.39V116.19h58.73Z"/>
      <path class="cls-1" d="M463.94,174.91v340.38h-58.16V174.91h-103.77v-58.72h265.69v58.72h-103.77Z"/>
      <path class="cls-1" d="M775.37,528.4c-118.02,0-213.23-95.79-213.23-213.23s95.21-213.24,213.23-213.24,213.23,95.22,213.23,213.24-95.79,213.23-213.23,213.23ZM667.04,422.93c29.08,29.08,67.28,45.04,108.33,45.04s79.25-15.96,108.33-45.04c29.08-28.51,44.47-67.27,44.47-107.76s-15.4-79.82-44.47-108.33c-29.08-29.08-67.28-45.04-108.33-45.04s-79.25,15.96-108.33,45.04c-29.08,28.51-45.04,67.27-45.04,108.33s15.96,79.25,45.04,107.76Z"/>
      <path class="cls-1" d="M1241.31,158.95c27.37,26.8,42.76,63.85,42.76,103.2s-15.4,74.69-42.76,102.62c-26.8,27.94-63.86,42.19-103.2,42.19h-50.17v107.19h-59.86V116.19h110.04c39.34,0,76.4,15.4,103.2,42.76ZM1224.77,262.15c0-47.32-39.34-86.66-86.66-86.66h-50.17v171.61h50.17c47.32,0,86.66-37.63,86.66-84.95Z"/>
      <path class="cls-1" d="M1410.46,459.42h51.88v55.88h-161.35v-55.88h52.45V174.91h-52.45v-58.72h161.35v58.72h-51.88v284.5Z"/>
      <path class="cls-1" d="M1506.16,515.29V116.19h262.84v399.1h-58.73v-169.9h-145.96v169.9h-58.16ZM1564.32,286.66h145.96v-111.75h-145.96v111.75Z"/>
    </g>
  </g>
</svg>